# Blender v2.77 (sub 0) OBJ File: ''
# www.blender.org
o Cube.001_Cube.003
v -0.550040 1.204245 0.440654
v -0.550040 2.157091 0.440654
v -0.550040 1.204245 -0.512193
v -0.550040 2.157091 -0.512193
v 0.402807 1.204245 0.440654
v 0.402807 2.157091 0.440654
v 0.402807 1.204245 -0.512193
v 0.402807 2.157091 -0.512193
vn -1.0000 0.0000 0.0000
vn 0.0000 0.0000 -1.0000
vn 1.0000 0.0000 0.0000
vn 0.0000 0.0000 1.0000
vn 0.0000 -1.0000 0.0000
vn 0.0000 1.0000 0.0000
s off
f 4//1 1//1 2//1
f 8//2 3//2 4//2
f 6//3 7//3 8//3
f 2//4 5//4 6//4
f 3//5 5//5 1//5
f 8//6 2//6 6//6
f 4//1 3//1 1//1
f 8//2 7//2 3//2
f 6//3 5//3 7//3
f 2//4 1//4 5//4
f 3//5 7//5 5//5
f 8//6 4//6 2//6
