# Blender v2.77 (sub 0) OBJ File: ''
# www.blender.org
o Cube_Cube.001
v -0.135973 3.125256 0.067694
v 0.131328 2.173484 0.067694
v 0.131328 3.125256 0.067694
v -0.135973 3.125256 -0.069511
v -0.135973 2.173484 0.067694
v 0.131328 3.125256 -0.069512
v -0.135973 2.173484 -0.069511
v 0.131328 2.173484 -0.069512
vn 0.0000 -0.0000 1.0000
vn -1.0000 -0.0000 0.0000
vn -0.0000 0.0000 -1.0000
vn 1.0000 -0.0000 0.0000
vn 0.0000 -1.0000 0.0000
vn 0.0000 1.0000 0.0000
s 1
f 1//1 2//1 3//1
f 4//2 5//2 1//2
f 6//3 7//3 4//3
f 3//4 8//4 6//4
f 5//5 8//5 2//5
f 4//6 3//6 6//6
f 1//1 5//1 2//1
f 4//2 7//2 5//2
f 6//3 8//3 7//3
f 3//4 2//4 8//4
f 5//5 7//5 8//5
f 4//6 1//6 3//6
