# Blender v2.77 (sub 0) OBJ File: ''
# www.blender.org
o Cube.000_Cube.000
v 0.091738 0.000811 0.035337
v -0.104540 1.139156 0.076991
v -0.130452 0.005830 0.037082
v 0.090600 0.006519 -0.126011
v 0.117650 1.134137 0.075246
v -0.105678 1.144863 -0.084357
v 0.116512 1.139845 -0.086102
v -0.131590 0.011538 -0.124266
vn 0.0070 -0.0354 0.9994
vn 0.0071 -0.0354 0.9994
vn 0.9997 -0.0226 -0.0079
vn -0.0070 0.0354 -0.9994
vn -0.9997 0.0226 0.0078
vn -0.9997 0.0226 0.0079
vn 0.0228 0.9991 0.0352
vn -0.0228 -0.9991 -0.0352
vn 0.0071 -0.0354 0.9993
s 1
f 1//1 2//2 3//1
f 4//3 5//3 1//3
f 4//4 6//4 7//4
f 8//5 2//6 6//6
f 2//7 7//7 6//7
f 4//8 3//8 8//8
f 1//1 5//9 2//2
f 4//3 7//3 5//3
f 4//4 8//4 6//4
f 8//5 3//5 2//6
f 2//7 5//7 7//7
f 4//8 1//8 3//8
