# Blender v2.77 (sub 0) OBJ File: ''
# www.blender.org
o Cube.002_Cube.004
v 1.828817 4.795084 2.055213
v 1.236349 3.938454 1.605927
v 1.896391 4.661984 2.219879
v 1.303923 3.805355 1.770592
v 1.957449 4.752049 1.967641
v 1.364981 3.895419 1.518354
v 2.025023 4.618949 2.132306
v 1.432555 3.762319 1.683020
vn -0.7967 0.2665 0.5424
vn 0.3040 -0.5989 0.7409
vn 0.7967 -0.2665 -0.5424
vn -0.3040 0.5989 -0.7409
vn 0.5223 0.7552 0.3961
vn -0.5223 -0.7552 -0.3961
s off
f 2//1 3//1 1//1
f 4//2 7//2 3//2
f 6//3 7//3 8//3
f 2//4 5//4 6//4
f 1//5 7//5 5//5
f 8//6 2//6 6//6
f 2//1 4//1 3//1
f 4//2 8//2 7//2
f 6//3 5//3 7//3
f 2//4 1//4 5//4
f 1//5 3//5 7//5
f 8//6 4//6 2//6
